<?xml version="1.0" encoding="iso-8859-1"?>
<!-- Generator: Adobe Illustrator 19.0.0, SVG Export Plug-In . SVG Version: 6.00 Build 0)  -->
<svg version="1.1" id="Capa_1" xmlns="http://www.w3.org/2000/svg" xmlns:xlink="http://www.w3.org/1999/xlink" x="0px" y="0px"
	 viewBox="0 0 512 512" style="enable-background:new 0 0 512 512;" xml:space="preserve">
<g>
	<g>
		<path d="M405.335,127.922c-4.142,0-7.5,3.358-7.5,7.5V426.5H114.163v-61.078c0-4.142-3.358-7.5-7.5-7.5
			c-4.142,0-7.5,3.358-7.5,7.5v112.695c0,18.683,15.2,33.883,33.883,33.883h44.864c4.142,0,7.5-3.358,7.5-7.5
			c0-4.142-3.358-7.5-7.5-7.5h-44.864c-10.412,0-18.883-8.471-18.883-18.883V441.5h283.673v36.617
			c0,10.412-8.471,18.883-18.883,18.883H212.088c-4.142,0-7.5,3.358-7.5,7.5c0,4.142,3.358,7.5,7.5,7.5h166.864
			c18.683,0,33.883-15.2,33.883-33.883V135.422C412.835,131.28,409.478,127.922,405.335,127.922z"/>
	</g>
</g>
<g>
	<g>
		<path d="M378.952,0H133.046c-18.683,0-33.883,15.2-33.883,33.883v297.361c0,4.142,3.358,7.5,7.5,7.5c4.142,0,7.5-3.358,7.5-7.5
			V76.22h283.673v25.025c0,4.142,3.358,7.5,7.5,7.5c4.142,0,7.5-3.358,7.5-7.5V33.883C412.835,15.2,397.635,0,378.952,0z
			 M397.835,61.22H114.163V33.883c0-10.412,8.471-18.883,18.883-18.883h245.906c10.412,0,18.883,8.471,18.883,18.883V61.22z"/>
	</g>
</g>
<g>
	<g>
		<path d="M270.499,448.175h-29c-11.028,0-20,8.972-20,20s8.972,20,20,20h29c11.028,0,20-8.972,20-20
			S281.527,448.175,270.499,448.175z M270.499,473.175h-29c-2.757,0-5-2.243-5-5s2.243-5,5-5h29c2.757,0,5,2.243,5,5
			C275.499,470.932,273.257,473.175,270.499,473.175z"/>
	</g>
</g>
<g>
	<g>
		<path d="M212.092,40.167h-0.093c-4.142,0-7.454,3.358-7.454,7.5c0,4.142,3.404,7.5,7.546,7.5c4.142,0,7.5-3.358,7.5-7.5
			C219.592,43.525,216.234,40.167,212.092,40.167z"/>
	</g>
</g>
<g>
	<g>
		<path d="M212.092,21.5h-0.093c-4.142,0-7.454,3.358-7.454,7.5c0,4.142,3.404,7.5,7.546,7.5c4.142,0,7.5-3.358,7.5-7.5
			C219.592,24.858,216.234,21.5,212.092,21.5z"/>
	</g>
</g>
<g>
	<g>
		<path d="M299.999,29.833h-64c-4.142,0-7.5,3.358-7.5,7.5c0,4.142,3.358,7.5,7.5,7.5h64c4.142,0,7.5-3.358,7.5-7.5
			C307.499,33.191,304.142,29.833,299.999,29.833z"/>
	</g>
</g>
<g>
	<g>
		<path d="M169.666,460.675h-14c-4.142,0-7.5,3.358-7.5,7.5c0,4.142,3.358,7.5,7.5,7.5h14c4.142,0,7.5-3.358,7.5-7.5
			C177.166,464.033,173.809,460.675,169.666,460.675z"/>
	</g>
</g>
<g>
	<g>
		<path d="M356.332,460.675h-14c-4.142,0-7.5,3.358-7.5,7.5c0,4.142,3.358,7.5,7.5,7.5h14c4.142,0,7.5-3.358,7.5-7.5
			C363.832,464.033,360.475,460.675,356.332,460.675z"/>
	</g>
</g>
<g>
</g>
<g>
</g>
<g>
</g>
<g>
</g>
<g>
</g>
<g>
</g>
<g>
</g>
<g>
</g>
<g>
</g>
<g>
</g>
<g>
</g>
<g>
</g>
<g>
</g>
<g>
</g>
<g>
</g>
</svg>
