<?xml version="1.0" encoding="iso-8859-1"?>
<!-- Generator: Adobe Illustrator 19.0.0, SVG Export Plug-In . SVG Version: 6.00 Build 0)  -->
<svg version="1.1" id="Capa_1" xmlns="http://www.w3.org/2000/svg" xmlns:xlink="http://www.w3.org/1999/xlink" x="0px" y="0px"
	 viewBox="0 0 512 512" style="enable-background:new 0 0 512 512;" xml:space="preserve">
<g>
	<g>
		<path d="M203.49,216.002v-31.243c0-0.014,0.002-0.028,0.002-0.042c0-6.257-5.13-10.206-10.61-12.694
			c5.479-2.49,10.608-6.439,10.608-12.693v-31.247c0-0.014,0.002-0.028,0.002-0.042c0-11.221-16.501-15.026-21.924-16.277
			c-10.924-2.519-25.335-3.907-40.576-3.907c-15.241,0-29.651,1.388-40.576,3.907c-5.348,1.233-21.462,4.958-21.903,15.825
			c-0.009,0.15-0.023,0.299-0.023,0.451v31.29c0,6.255,5.131,10.203,10.611,12.691c-5.331,2.421-10.32,6.23-10.586,12.197
			c-0.011,0.164-0.025,0.326-0.025,0.492V216c0,6.258,5.13,10.207,10.61,12.695c-5.354,2.432-10.363,6.264-10.589,12.275
			c-0.008,0.14-0.021,0.279-0.021,0.421v31.28c0,11.224,16.503,15.031,21.926,16.282c10.924,2.521,25.334,3.908,40.574,3.908
			c15.244,0,29.655-1.388,40.578-3.908c5.422-1.251,21.922-5.058,21.922-16.282v-31.24c0-0.014,0.002-0.028,0.002-0.042
			c0-6.256-5.13-10.205-10.609-12.693C198.361,226.208,203.49,222.259,203.49,216.002z M140.992,122.857
			c21.228,0,35.973,2.7,43.311,5.184c-7.338,2.484-22.083,5.184-43.311,5.184c-21.228,0-35.973-2.7-43.311-5.184
			C105.02,125.557,119.765,122.857,140.992,122.857z M188.49,270.841c-4.332,2.741-20.779,7.019-47.5,7.019
			c-26.718,0-43.166-4.278-47.5-7.02v-15.057c2.797,0.927,5.338,1.515,6.926,1.882c10.925,2.519,25.335,3.907,40.576,3.907
			c15.241,0,29.652-1.388,40.576-3.907c1.588-0.366,4.127-0.954,6.922-1.88V270.841z M97.681,241.388
			c7.339-2.484,22.084-5.184,43.311-5.184c21.228,0,35.973,2.7,43.311,5.184c-7.338,2.484-22.083,5.184-43.311,5.184
			C119.764,246.572,105.019,243.872,97.681,241.388z M188.49,214.168c-4.334,2.74-20.78,7.012-47.5,7.012
			c-26.718,0-43.165-4.273-47.5-7.012v-15.059c2.797,0.927,5.338,1.515,6.926,1.881c10.925,2.52,25.335,3.907,40.576,3.907
			c15.241,0,29.652-1.387,40.576-3.907c1.588-0.366,4.127-0.954,6.922-1.88V214.168z M97.681,184.714
			c7.338-2.484,22.083-5.184,43.311-5.184s35.973,2.7,43.311,5.184c-7.338,2.484-22.083,5.183-43.311,5.183
			C119.764,189.897,105.019,187.198,97.681,184.714z M188.49,157.496c-4.339,2.739-20.787,7.014-47.5,7.014
			c-26.71,0-43.159-4.274-47.5-7.016v-15.058c2.797,0.927,5.338,1.515,6.926,1.882c10.925,2.519,25.335,3.907,40.576,3.907
			c15.241,0,29.652-1.388,40.576-3.907c1.588-0.366,4.127-0.954,6.922-1.88V157.496z"/>
	</g>
</g>
<g>
	<g>
		<path d="M287.687,161.857h-40c-4.143,0-7.5,3.358-7.5,7.5v116c0,4.142,3.357,7.5,7.5,7.5h40c4.143,0,7.5-3.358,7.5-7.5v-116
			C295.187,165.215,291.83,161.857,287.687,161.857z M280.187,277.857h-25v-101h25V277.857z"/>
	</g>
</g>
<g>
	<g>
		<path d="M430,208.5h-40c-4.143,0-7.5,3.358-7.5,7.5v69.357c0,4.142,3.357,7.5,7.5,7.5h40c4.143,0,7.5-3.358,7.5-7.5V216
			C437.5,211.858,434.143,208.5,430,208.5z M422.5,277.857h-25V223.5h25V277.857z"/>
	</g>
</g>
<g>
	<g>
		<path d="M359,111.352h-40c-4.143,0-7.5,3.358-7.5,7.5v166.505c0,4.142,3.357,7.5,7.5,7.5h40c4.143,0,7.5-3.358,7.5-7.5V118.852
			C366.5,114.71,363.143,111.352,359,111.352z M351.5,277.857h-25V126.352h25V277.857z"/>
	</g>
</g>
<g>
	<g>
		<path d="M464.5,46h-417C21.309,46,0,67.309,0,93.5v10.375c0,4.142,3.357,7.5,7.5,7.5s7.5-3.358,7.5-7.5V93.5
			C15,75.58,29.579,61,47.5,61h417c17.921,0,32.5,14.58,32.5,32.5V321h-15v-1.083c0-4.142-3.357-7.5-7.5-7.5s-7.5,3.358-7.5,7.5V321
			H96.125c-4.143,0-7.5,3.358-7.5,7.5c0,4.142,3.357,7.5,7.5,7.5H497v2.5c0,17.92-14.579,32.5-32.5,32.5h-417
			C29.579,371,15,356.42,15,338.5V336h49.125c4.143,0,7.5-3.358,7.5-7.5c0-4.142-3.357-7.5-7.5-7.5H45V93.5
			c0-1.378,1.121-2.5,2.5-2.5h417c1.379,0,2.5,1.122,2.5,2.5v194.333c0,4.142,3.357,7.5,7.5,7.5s7.5-3.358,7.5-7.5V93.5
			c0-9.649-7.851-17.5-17.5-17.5h-417C37.851,76,30,83.851,30,93.5V321H15V135.75c0-4.142-3.357-7.5-7.5-7.5s-7.5,3.358-7.5,7.5
			V338.5C0,364.691,21.309,386,47.5,386h130.655c-1.56,16.171-5.197,27.495-8.665,35H137c-12.406,0-22.5,10.093-22.5,22.5
			c0,12.407,10.094,22.5,22.5,22.5h238c12.406,0,22.5-10.093,22.5-22.5c0-12.407-10.094-22.5-22.5-22.5h-32.49
			c-3.468-7.505-7.105-18.829-8.665-35H464.5c26.191,0,47.5-21.309,47.5-47.5v-245C512,67.309,490.691,46,464.5,46z M193.209,386
			h125.582c1.317,14.88,4.263,26.403,7.483,35H185.726C188.946,412.403,191.893,400.88,193.209,386z M375,436
			c4.136,0,7.5,3.364,7.5,7.5s-3.364,7.5-7.5,7.5H137c-4.136,0-7.5-3.364-7.5-7.5s3.364-7.5,7.5-7.5H375z"/>
	</g>
</g>
<g>
</g>
<g>
</g>
<g>
</g>
<g>
</g>
<g>
</g>
<g>
</g>
<g>
</g>
<g>
</g>
<g>
</g>
<g>
</g>
<g>
</g>
<g>
</g>
<g>
</g>
<g>
</g>
<g>
</g>
</svg>
